<?xml version="1.0" encoding="utf-8"?>
<?xml-stylesheet type="text/xsl" href="rss1.xsl"?>
<rss version="2.0" xmlns:atom="http://www.w3.org/2005/Atom" xmlns:content="http://purl.org/rss/1.0/modules/content/" xmlns:dc="http://purl.org/dc/elements/1.1/" xmlns:media="http://search.yahoo.com/mrss/">
<channel>
 <title>Getty</title>
 <link>http://www.gettyimg.com/</link>
 <atom:link href="http://www.gettyimg.com/" rel="self" type="application/rss+xml" />

 
                <item>
                <title><![CDATA[【Music Videos】No Doubt - Don't Speak (Harmony Mix) (Video Edit VJ-RoGeRs)]]></title>
                <link><![CDATA[https://sharemania.us/threads/no-doubt-dont-speak-harmony-mix-video-edit-vj-rogers.240482/]]></link>
                <description><![CDATA[<article>
<blockquote class="messageText SelectQuoteContainer ugc baseHtml">
<img src="https://i.ibb.co/9hr07rr/No-Doubt-Don-t-Speak-Harmony-Mix-Video-Edit-VJ-Ro-Ge-Rs-mp4-thumbs-2024-03-22-14-56-44.jpg" class="bbCodeImage LbImage" alt="[​IMG]" data-url="https://i.ibb.co/9hr07rr/No-Doubt-Don-t-Speak-Harmony-Mix-Video-Edit-VJ-Ro-Ge-Rs-mp4-thumbs-2024-03-22-14-56-44.jpg" style=""> <br>
<br>
<div class="ToggleTriggerAnchor bbCodeSpoilerContainer">
<button type="button" class="button bbCodeSpoilerButton ToggleTrigger Tooltip JsOnly" data-target="> .SpoilerTarget"><span>Spoiler: <span class="SpoilerTitle">MediaInfo</span></span></button>
<div class="SpoilerTarget bbCodeSpoilerText">No Doubt - Don't Speak (Harmony Mix) (Video Edit VJ-RoGeRs).mp4<br>
Format : MPEG-4<br>
Format profile : Base Media / Version 2<br>
Codec ID : mp42 (mp42/mp41)<br>
File size : 369 MiB<br>
Duration : 5 min 1 s<br>
Overall bit rate mode : Variable<br>
Overall bit rate : 10.3 Mb/s<br>
Frame rate : 29.970 FPS<br>
Encoded date : 2020-05-19 04:29:34 UTC<br>
Tagged date : 2020-05-19 04:29:50 UTC<br>
TIM : 00:00:00:00<br>
TSC : 30000<br>
TSZ : 1001<br>
<br>
Video<br>
ID : 1<br>
Format : AVC<br>
Format/Info : Advanced Video Codec<br>
Format profile : High@L3.1<br>
Format settings : CABAC / 4 Ref Frames<br>
Format settings, CABAC : Yes<br>
Format settings, Reference : 4 frames<br>
Codec ID : avc1<br>
Codec ID/Info : Advanced Video Coding<br>
Duration : 5 min 1 s<br>
Bit rate mode : Variable<br>
Bit rate : 9 969 kb/s<br>
Maximum bit rate : 12.0 Mb/s<br>
Width : 720 pixels<br>
Height : 480 pixels<br>
Display aspect ratio : 4:3<br>
Original display aspect rat : 4:3<br>
Frame rate mode : Constant<br>
Frame rate : 29.970 (30000/1001) FPS<br>
Standard : NTSC<br>
Color space : YUV<br>
Chroma subsampling : 4:2:0<br>
Bit depth : 8 bits<br>
Scan type : Interlaced<br>
Scan type, store method : Separated fields<br>
Scan order : Top Field First<br>
Bits/(Pixel*Frame) : 0.963<br>
Stream size : 358 MiB (97%)<br>
Language : English<br>
Encoded date : 2020-05-19 04:29:34 UTC<br>
Tagged date : 2020-05-19 04:29:34 UTC<br>
Color range : Limited<br>
Color primaries : BT.601 NTSC<br>
Transfer characteristics : BT.601<br>
Matrix coefficients : BT.601<br>
Codec configuration box : avcC<br>
<br>
Audio<br>
ID : 2<br>
Format : AAC LC<br>
Format/Info : Advanced Audio Codec Low Complexity<br>
Codec ID : mp4a-40-2<br>
Duration : 5 min 1 s<br>
Source duration : 5 min 1 s<br>
Bit rate mode : Variable<br>
Bit rate : 317 kb/s<br>
Maximum bit rate : 409 kb/s<br>
Channel(s) : 2 channels<br>
Channel layout : L R<br>
Sampling rate : 48.0 kHz<br>
Frame rate : 46.875 FPS (1024 SPF)<br>
Compression mode : Lossy<br>
Stream size : 11.4 MiB (3%)<br>
Source stream size : 11.4 MiB (3%)<br>
Language : English<br>
Encoded date : 2020-05-19 04:29:34 UTC<br>
Tagged date : 2020-05-19 04:29:34 UTC</div>
</div><br>
<div class="bbCodeBlock bbCodeVfcHH HiddenContent">
<div class="attribution type">Hidden Content:</div>
<blockquote>You must reply before you can see the hidden data contained here.</blockquote>
</div>
<div class="messageTextEndMarker">&nbsp;</div>
</blockquote>
</article>]]></description>
                <author><![CDATA[DJ-RoGeRs-BS]]></author>
                </item>

                
                <item>
                <title><![CDATA[【Requests】[REQ AUD] - Help me pls i love this album and that ep ↓]]></title>
                <link><![CDATA[https://sharemania.us/threads/help-me-pls-i-love-this-album-and-that-ep-%E2%86%93.240484/]]></link>
                <description><![CDATA[<article>
<blockquote class="messageText SelectQuoteContainer ugc baseHtml">
Elita - Dysania<br>
Elita - Sick Girl
<div class="messageTextEndMarker">&nbsp;</div>
</blockquote>
</article>]]></description>
                <author><![CDATA[SchizoRat]]></author>
                </item>

                
                <item>
                <title><![CDATA[【Requests】[REQ AUD] - (G)I-DLE - Various K-Drama OSTs (FLAC)]]></title>
                <link><![CDATA[https://sharemania.us/threads/g-i-dle-various-k-drama-osts-flac.240483/]]></link>
                <description><![CDATA[<article>
<blockquote class="messageText SelectQuoteContainer ugc baseHtml">
Hey guys,<br>
<br>
If anyone has FLAC files of these songs, it would be very appreciated (24bit if they exist!). Thank you &lt;3<br>
<br>
MIYEON - Dreaming About You - Replay (Original Television Soundtrack) (2021)<br>
MIYEON - Dreaming About You (inst.) - Replay (Original Television Soundtrack) (2021)<br>
<a href="https://tidal.com/browse/album/173999339" target="_blank" class="externalLink" rel="nofollow">https://tidal.com/browse/album/173999339</a><br>
<br>
MIYEON &amp; MINNIE - We Already Fell In Love - Do Do Sol Sol La La Sol (2020)<br>
MIYEON &amp; MINNIE - We Already Fell In Love (inst.) - Do Do Sol Sol La La Sol (2020)<br>
<br>
MIYEON - The Painted On The Moonlight - My Dearest OST (2023)<br>
MIYEON - The Painted On The Moonlight (inst.) - My Dearest OST (2023)<br>
<a href="https://tidal.com/browse/album/311616880" target="_blank" class="externalLink" rel="nofollow">https://tidal.com/browse/album/311616880</a>
<div class="messageTextEndMarker">&nbsp;</div>
</blockquote>
</article>]]></description>
                <author><![CDATA[fosix]]></author>
                </item>

                </channel></rss>